<?xml version="1.0" encoding="UTF-8" standalone="no"?>
<!-- Created with Inkscape (http://www.inkscape.org/) -->

<svg
   xmlns:dc="http://purl.org/dc/elements/1.1/"
   xmlns:cc="http://creativecommons.org/ns#"
   xmlns:rdf="http://www.w3.org/1999/02/22-rdf-syntax-ns#"
   xmlns:svg="http://www.w3.org/2000/svg"
   xmlns="http://www.w3.org/2000/svg"
   xmlns:sodipodi="http://sodipodi.sourceforge.net/DTD/sodipodi-0.dtd"
   xmlns:inkscape="http://www.inkscape.org/namespaces/inkscape"
   width="269.01126"
   height="266.71057"
   id="svg2"
   version="1.1"
   inkscape:version="0.48.3.1 r9886"
   sodipodi:docname="convexhull_illustration.svg"
   inkscape:export-filename="/home/helfrich/Dropbox/PhD/Dokumentation/convexhull_illustration.png"
   inkscape:export-xdpi="150"
   inkscape:export-ydpi="150">
  <defs
     id="defs4" />
  <sodipodi:namedview
     id="base"
     pagecolor="#ffffff"
     bordercolor="#666666"
     borderopacity="1.0"
     inkscape:pageopacity="0.0"
     inkscape:pageshadow="2"
     inkscape:zoom="1.979899"
     inkscape:cx="88.031479"
     inkscape:cy="152.01486"
     inkscape:document-units="px"
     inkscape:current-layer="layer1"
     showgrid="false"
     fit-margin-left="2"
     fit-margin-top="2"
     fit-margin-right="2"
     fit-margin-bottom="2"
     inkscape:window-width="1680"
     inkscape:window-height="1021"
     inkscape:window-x="0"
     inkscape:window-y="0"
     inkscape:window-maximized="1" />
  <metadata
     id="metadata7">
    <rdf:RDF>
      <cc:Work
         rdf:about="">
        <dc:format>image/svg+xml</dc:format>
        <dc:type
           rdf:resource="http://purl.org/dc/dcmitype/StillImage" />
        <dc:title></dc:title>
      </cc:Work>
    </rdf:RDF>
  </metadata>
  <g
     inkscape:label="Layer 1"
     inkscape:groupmode="layer"
     id="layer1"
     transform="translate(-54.705663,-25.34132)">
    <path
       style="fill:none;stroke:#000000;stroke-width:3;stroke-miterlimit:4;stroke-opacity:1;stroke-dasharray:none"
       d="m 289.01612,66.06157 c 3.93977,-0.0898 7.64606,0.631741 11.04195,2.232246 l 0,0 c 25.69265,12.109105 23.88847,69.945604 -4.02974,129.181434 -27.91821,59.23583 -71.3784,97.43959 -97.07105,85.33048 -25.69265,-12.1091 -23.88847,-69.9456 4.02974,-129.18143 3.33258,-7.07094 6.88661,-13.84219 10.60545,-20.26395"
       id="path3882"
       inkscape:connector-curvature="0" />
    <path
       style="fill:#000000;fill-opacity:0;stroke:#000000;stroke-width:3;stroke-miterlimit:4;stroke-opacity:1;stroke-dasharray:none"
       d="m 212.58652,133.97172 c -7.06319,2.79734 -14.46527,5.36979 -22.14406,7.66498 C 127.70007,160.39043 70.243283,153.53237 62.109137,126.3188 53.974991,99.105234 98.243722,61.841379 160.98612,43.087653 223.72851,24.333927 281.1853,31.191984 289.31944,58.405551 l 0,0 c 0.79929,2.674089 1.09259,5.44522 0.9121,8.286295"
       id="path3877"
       inkscape:connector-curvature="0" />
    <path
       style="fill:none;stroke:#ff0000;stroke-width:3;stroke-linecap:butt;stroke-linejoin:miter;stroke-miterlimit:4;stroke-opacity:1;stroke-dasharray:none"
       d="M 61.114229,129.08275 195.46452,283.6361"
       id="path3904"
       inkscape:connector-curvature="0"
       sodipodi:nodetypes="cc" />
    <path
       style="fill:none;stroke:#ff0000;stroke-width:3.02915454;stroke-miterlimit:4;stroke-opacity:1;stroke-dasharray:none"
       d="m 290.92074,66.055965 c 3.95341,-0.09124 7.67254,0.641855 11.0802,2.267981 l 0,0 c 25.78164,12.302995 23.97121,71.065544 -4.0437,131.249814 -28.01492,60.18429 -71.62564,98.99975 -97.40729,86.69675 -3.20966,-1.53165 -5.99167,-3.78336 -8.34872,-6.66823"
       id="path3882-9"
       inkscape:connector-curvature="0" />
    <path
       style="fill:none;stroke:#ff0000;stroke-width:3;stroke-miterlimit:4;stroke-opacity:1;stroke-dasharray:none"
       d="m 61.750161,129.8629 c -1.107679,-1.77845 -1.969845,-3.66665 -2.569592,-5.66257 -8.31141,-27.659873 36.92205,-65.53487 101.031771,-84.596163 64.1097,-19.061293 122.81862,-12.090762 131.13003,15.569116 l 0,0 c 0.81671,2.717945 0.61132,8.564982 0.42689,11.452651"
       id="path3973"
       inkscape:connector-curvature="0"
       sodipodi:nodetypes="cssccc" />
    <text
       xml:space="preserve"
       style="font-size:20px;font-style:normal;font-weight:normal;line-height:125%;letter-spacing:0px;word-spacing:0px;fill:#000000;fill-opacity:1;stroke:none;font-family:Sans"
       x="178.29193"
       y="123.52691"
       id="text3975"
       sodipodi:linespacing="125%"><tspan
         sodipodi:role="line"
         id="tspan3977"
         x="178.29193"
         y="123.52691">cell area</tspan></text>
    <text
       xml:space="preserve"
       style="font-size:20px;font-style:normal;font-weight:normal;line-height:125%;letter-spacing:0px;word-spacing:0px;fill:#000000;fill-opacity:1;stroke:none;font-family:Sans"
       x="182.66805"
       y="32.357803"
       id="text3979"
       sodipodi:linespacing="125%"
       transform="matrix(0.64597505,0.76335852,-0.76335852,0.64597505,0,0)"><tspan
         sodipodi:role="line"
         id="tspan3981"
         x="182.66805"
         y="32.357803"
         style="fill:#ff0000;fill-opacity:1">convex hull</tspan></text>
  </g>
</svg>
